# xmcd
#
# Track frame offsets: 
#        150
#        12718
#        28255
#        42263
#        55338
#        67530
#        81620
#        97460
#        112693
#        125065
#        138645
#        152578
#        166750
#        181983
#
# Disc length: 2607 seconds
#
# Revision: 3
# Processed by: cddbd v1.5.2PL0 Copyright (c) Steve Scherf et al.
# Submitted via: ExactAudioCopy v0.99pb5
#
DISCID=c10a2d0e
DTITLE=Various Artist - Mit Herz und Gefühl
DYEAR=1997
DGENRE=Country
TTITLE0=Dagmar - Wenn man geht, geht man niemals für immer
TTITLE1=Bleib doch
TTITLE2=Wissen, wohin man gehört
TTITLE3=Brave Jungen kommen in den Himmel
TTITLE4=Heimatlos
TTITLE5=Dafür bin ich
TTITLE6=Wir Zwei
TTITLE7=Nur ein bisschen Zärtlichkeit
TTITLE8=Tränen im Kaffee
TTITLE9=Ein Sonntag mit dir
TTITLE10=Es ist nie zu spät
TTITLE11=Cowboys
TTITLE12=Highway Heaven
TTITLE13=Paradise Canyon
EXTD=
EXTT0=
EXTT1=
EXTT2=
EXTT3=
EXTT4=
EXTT5=
EXTT6=
EXTT7=
EXTT8=
EXTT9=
EXTT10=
EXTT11=
EXTT12=
EXTT13=
PLAYORDER=
